<?xml version="1.0" standalone="no"?>
<!DOCTYPE svg PUBLIC "-//W3C//DTD SVG 20010904//EN"
 "http://www.w3.org/TR/2001/REC-SVG-20010904/DTD/svg10.dtd">
<svg version="1.0" xmlns="http://www.w3.org/2000/svg"
 width="512.000000pt" height="512.000000pt" viewBox="0 0 512.000000 512.000000"
 preserveAspectRatio="xMidYMid meet">
<metadata>
Created by potrace 1.11, written by Peter Selinger 2001-2013
</metadata>
<g transform="translate(0.000000,512.000000) scale(0.100000,-0.100000)"
fill="#000000" stroke="none">
<path d="M351 5095 c-41 -13 -87 -33 -103 -45 -15 -11 -31 -20 -35 -20 -20 0
-131 -130 -157 -183 -59 -122 -56 23 -56 -2282 0 -1737 3 -2130 14 -2177 43
-186 207 -344 390 -377 85 -16 4244 -15 4318 0 188 39 353 207 387 393 8 42
11 701 11 2166 0 2300 4 2154 -56 2278 -28 57 -120 163 -163 187 -72 40 -134
64 -187 74 -40 8 -696 11 -2174 11 l-2115 -1 -74 -24z"/>
</g>
</svg>
